Coordinates
version=1
nRows=6
nColumns=36
inDegrees=yes

Units are S.I. units (second, meters, Newtons, ...)
If the header above contains a line with 'inDegrees', this indicates whether rotational values are in degrees (yes) or radians (no).

endheader
time	pelvis_tilt	pelvis_list	pelvis_rotation	pelvis_tx	pelvis_ty	pelvis_tz	hip_flexion_r	hip_adduction_r	hip_rotation_r	knee_angle_r	knee_angle_r_beta	ankle_angle_r	subtalar_angle_r	mtp_angle_r	hip_flexion_l	hip_adduction_l	hip_rotation_l	knee_angle_l	knee_angle_l_beta	ankle_angle_l	subtalar_angle_l	mtp_angle_l	lumbar_extension	lumbar_bending	lumbar_rotation	arm_flex_r	arm_add_r	arm_rot_r	elbow_flex_r	pro_sup_r	arm_flex_l	arm_add_l	arm_rot_l	elbow_flex_l	pro_sup_l
      0.00000000	      0.65501194	     -2.18692401	      4.45156212	      0.62384799	      0.78803340	      0.68773002	     25.40634196	      0.11340759	     -0.58271077	      3.63296841	      0.06340726	     -1.22373348	     -9.93658892	     -6.86310317	    -20.16693384	     -1.43690752	      5.62195238	      6.29476074	      0.10986430	     10.82436715	     -2.69400044	     -6.86310317	     -6.81019896	      3.95581425	    -10.53361283	     -7.09001994	    -14.31338825	    -21.68778115	     13.12511343	     85.15905051	     19.60226983	    -15.40433739	      2.59204286	     32.78705588	     88.56566668
      0.01666670	     -1.19623170	     -2.70408527	      4.64166329	      0.63268419	      0.78440956	      0.69138455	     27.49484425	      0.61932204	     -2.28128434	      6.59663068	      0.11513292	     -0.95349503	    -10.79910128	     -6.95195622	    -17.73069957	     -2.57711663	      5.65647264	     11.59823738	      0.20242743	      7.34381117	     -2.57866372	     -6.95195622	     -3.13909738	      4.88339566	    -12.95034516	     -6.58325224	    -15.04761152	    -23.84401924	     10.78190216	     84.39270113	     17.15042023	    -15.86466622	     -0.77068340	     32.80996852	     86.19493542
      0.03333330	     -3.64124706	     -3.29791360	      4.60933024	      0.64330753	      0.78293592	      0.69660144	     29.96309568	      1.32724783	     -3.33532810	     10.20842489	      0.17817063	     -1.53915356	    -10.93092323	     -7.02748756	    -14.64764334	     -3.82082045	      4.35995684	     16.42480136	      0.28666686	      2.57669500	     -3.16457217	     -7.02748756	      1.88031434	      5.16289574	    -14.33339111	     -7.57722673	    -16.31702583	    -23.86118351	      8.82618431	     84.82914551	     14.78788393	    -15.89950711	     -1.83477896	     30.91866914	     85.15169056
      0.05000000	     -3.92328873	     -4.46092327	      4.22203813	      0.65277227	      0.78491712	      0.70185753	     30.02220407	      2.90056612	     -5.07475818	     13.46572007	      0.23502115	     -1.64770867	    -10.40546474	     -7.04857082	    -13.48521798	     -5.69328564	      2.60441466	     21.06223190	      0.36760529	     -3.14935693	     -4.14961683	     -7.04857082	      3.55705640	      6.50833451	    -14.04122033	     -8.03721494	    -17.25674064	    -23.64708576	      7.84611884	     85.09336543	     13.20581370	    -15.06735073	     -1.98012019	     29.29073542	     84.99474654
      0.06666670	     -3.20403690	     -5.48461404	      3.72150098	      0.66122385	      0.78849215	      0.70501732	     28.81553349	      4.40315050	     -6.20148963	     16.14425271	      0.28177037	     -1.24227522	     -9.36552433	     -7.07761321	    -12.68265349	     -7.62778564	      0.58553946	     26.54871082	      0.46336242	     -9.86296013	     -4.50720848	     -7.07761321	      3.82671323	      7.57250292	    -13.29004218	     -7.90112613	    -17.82262017	    -22.71931661	      6.60601468	     85.71116633	     12.17747184	    -14.19257859	     -2.01289418	     26.89568567	     84.87404436
      0.08333330	     -2.10894214	     -6.58788982	      3.30425892	      0.66797581	      0.79297100	      0.70577430	     26.64205029	      5.95346561	     -6.91594649	     17.64901451	      0.30803341	     -0.97762657	     -8.86950349	     -7.10858635	    -11.90754572	     -9.60478429	     -0.91356775	     32.06002804	      0.55955305	    -15.77755693	     -4.39866649	     -7.10858635	      3.32316967	      8.86586545	    -12.39407976	     -7.57183290	    -18.19613411	    -21.72394765	      5.75918317	     86.18947398	     11.25072978	    -13.27676080	     -1.73814229	     24.65645598	     84.75485894
